<mxfile host="www.draw.io" modified="2019-10-24T08:42:17.024Z" agent="Mozilla/5.0 (Windows NT 10.0; WOW64) AppleWebKit/537.36 (KHTML, like Gecko) Chrome/63.0.3237.0 Safari/537.36" etag="iqJDluVWn3cq_sPasC4m" version="12.1.4" type="github" pages="5">
  <diagram id="w00uWVof-ToGrlMLn6s3" name="第 1 页">
    <mxGraphModel dx="854" dy="473" grid="1" gridSize="10" guides="1" tooltips="1" connect="1" arrows="1" fold="1" page="1" pageScale="1" pageWidth="827" pageHeight="1169" math="0" shadow="0">
      <root>
        <mxCell id="0"/>
        <mxCell id="1" parent="0"/>
        <mxCell id="zeNd_vxI_1sylnPPY-e2-1" value="" style="edgeStyle=orthogonalEdgeStyle;rounded=0;orthogonalLoop=1;jettySize=auto;html=1;" parent="1" source="zeNd_vxI_1sylnPPY-e2-2" target="zeNd_vxI_1sylnPPY-e2-8" edge="1">
          <mxGeometry relative="1" as="geometry"/>
        </mxCell>
        <mxCell id="zeNd_vxI_1sylnPPY-e2-2" value="支付流程" style="rounded=1;whiteSpace=wrap;html=1;" parent="1" vertex="1">
          <mxGeometry x="218" y="469" width="120" height="60" as="geometry"/>
        </mxCell>
        <mxCell id="zeNd_vxI_1sylnPPY-e2-3" value="" style="endArrow=classic;html=1;entryX=0.5;entryY=0;entryDx=0;entryDy=0;" parent="1" target="zeNd_vxI_1sylnPPY-e2-2" edge="1">
          <mxGeometry width="50" height="50" relative="1" as="geometry">
            <mxPoint x="278" y="389" as="sourcePoint"/>
            <mxPoint x="308" y="379" as="targetPoint"/>
          </mxGeometry>
        </mxCell>
        <mxCell id="zeNd_vxI_1sylnPPY-e2-4" value="" style="endArrow=classic;html=1;exitX=1;exitY=0.5;exitDx=0;exitDy=0;" parent="1" source="zeNd_vxI_1sylnPPY-e2-2" edge="1">
          <mxGeometry width="50" height="50" relative="1" as="geometry">
            <mxPoint x="498" y="559" as="sourcePoint"/>
            <mxPoint x="468" y="499" as="targetPoint"/>
          </mxGeometry>
        </mxCell>
        <mxCell id="zeNd_vxI_1sylnPPY-e2-5" value="旧的卡的支付方式" style="rounded=1;whiteSpace=wrap;html=1;" parent="1" vertex="1">
          <mxGeometry x="468" y="469" width="120" height="60" as="geometry"/>
        </mxCell>
        <mxCell id="zeNd_vxI_1sylnPPY-e2-6" value="" style="edgeStyle=orthogonalEdgeStyle;rounded=0;orthogonalLoop=1;jettySize=auto;html=1;" parent="1" source="zeNd_vxI_1sylnPPY-e2-8" target="zeNd_vxI_1sylnPPY-e2-10" edge="1">
          <mxGeometry relative="1" as="geometry"/>
        </mxCell>
        <mxCell id="zeNd_vxI_1sylnPPY-e2-7" value="" style="edgeStyle=orthogonalEdgeStyle;rounded=0;orthogonalLoop=1;jettySize=auto;html=1;" parent="1" source="zeNd_vxI_1sylnPPY-e2-8" target="zeNd_vxI_1sylnPPY-e2-9" edge="1">
          <mxGeometry relative="1" as="geometry"/>
        </mxCell>
        <mxCell id="zeNd_vxI_1sylnPPY-e2-8" value="钱包支付" style="rounded=1;whiteSpace=wrap;html=1;" parent="1" vertex="1">
          <mxGeometry x="218" y="599" width="120" height="60" as="geometry"/>
        </mxCell>
        <mxCell id="zeNd_vxI_1sylnPPY-e2-9" value="钱包充值对应提现处理&lt;br&gt;1.充值失败了，人工怎么处理" style="rounded=1;whiteSpace=wrap;html=1;" parent="1" vertex="1">
          <mxGeometry x="478" y="599" width="120" height="60" as="geometry"/>
        </mxCell>
        <mxCell id="zeNd_vxI_1sylnPPY-e2-10" value="多商家的支付，不存在退款处理，现场处理的。" style="rounded=1;whiteSpace=wrap;html=1;" parent="1" vertex="1">
          <mxGeometry x="468" y="729" width="120" height="60" as="geometry"/>
        </mxCell>
        <mxCell id="zeNd_vxI_1sylnPPY-e2-11" value="不够支付的时候充值" style="text;html=1;strokeColor=none;fillColor=none;align=center;verticalAlign=middle;whiteSpace=wrap;rounded=0;" parent="1" vertex="1">
          <mxGeometry x="338" y="609" width="120" height="20" as="geometry"/>
        </mxCell>
      </root>
    </mxGraphModel>
  </diagram>
  <diagram name="第 2 页" id="IBAAzz9lzobdMVeoyoy1">
    <mxGraphModel dx="854" dy="1642" grid="1" gridSize="10" guides="1" tooltips="1" connect="1" arrows="1" fold="1" page="1" pageScale="1" pageWidth="827" pageHeight="1169" math="0" shadow="0">
      <root>
        <mxCell id="tkmVKXa2MN0v9ZeXc4bM-0"/>
        <mxCell id="tkmVKXa2MN0v9ZeXc4bM-1" parent="tkmVKXa2MN0v9ZeXc4bM-0"/>
        <mxCell id="SWkFI_tep8jCoxwhRH0J-25" value="" style="rounded=0;whiteSpace=wrap;html=1;" parent="tkmVKXa2MN0v9ZeXc4bM-1" vertex="1">
          <mxGeometry x="240" y="290" width="450" height="190" as="geometry"/>
        </mxCell>
        <mxCell id="SWkFI_tep8jCoxwhRH0J-0" value="LPS&lt;br&gt;白名单????" style="rounded=1;whiteSpace=wrap;html=1;" parent="tkmVKXa2MN0v9ZeXc4bM-1" vertex="1">
          <mxGeometry x="240" y="370" width="120" height="60" as="geometry"/>
        </mxCell>
        <mxCell id="SWkFI_tep8jCoxwhRH0J-1" value="" style="endArrow=classic;html=1;entryX=0;entryY=0.5;entryDx=0;entryDy=0;" parent="tkmVKXa2MN0v9ZeXc4bM-1" target="SWkFI_tep8jCoxwhRH0J-0" edge="1">
          <mxGeometry width="50" height="50" relative="1" as="geometry">
            <mxPoint x="50" y="400" as="sourcePoint"/>
            <mxPoint x="110" y="390" as="targetPoint"/>
          </mxGeometry>
        </mxCell>
        <mxCell id="SWkFI_tep8jCoxwhRH0J-3" value="LPR ENTRY" style="text;html=1;strokeColor=none;fillColor=none;align=center;verticalAlign=middle;whiteSpace=wrap;rounded=0;" parent="tkmVKXa2MN0v9ZeXc4bM-1" vertex="1">
          <mxGeometry x="70" y="360" width="40" height="20" as="geometry"/>
        </mxCell>
        <mxCell id="SWkFI_tep8jCoxwhRH0J-19" value="" style="edgeStyle=orthogonalEdgeStyle;rounded=0;orthogonalLoop=1;jettySize=auto;html=1;" parent="tkmVKXa2MN0v9ZeXc4bM-1" source="SWkFI_tep8jCoxwhRH0J-4" target="SWkFI_tep8jCoxwhRH0J-18" edge="1">
          <mxGeometry relative="1" as="geometry"/>
        </mxCell>
        <mxCell id="SWkFI_tep8jCoxwhRH0J-4" value="Cloud-Service" style="rounded=1;whiteSpace=wrap;html=1;" parent="tkmVKXa2MN0v9ZeXc4bM-1" vertex="1">
          <mxGeometry x="240" y="180" width="120" height="60" as="geometry"/>
        </mxCell>
        <mxCell id="SWkFI_tep8jCoxwhRH0J-5" value="" style="endArrow=classic;html=1;" parent="tkmVKXa2MN0v9ZeXc4bM-1" edge="1">
          <mxGeometry width="50" height="50" relative="1" as="geometry">
            <mxPoint x="280" y="370" as="sourcePoint"/>
            <mxPoint x="280" y="244" as="targetPoint"/>
          </mxGeometry>
        </mxCell>
        <mxCell id="SWkFI_tep8jCoxwhRH0J-8" value="" style="endArrow=classic;html=1;exitX=0.667;exitY=1;exitDx=0;exitDy=0;exitPerimeter=0;" parent="tkmVKXa2MN0v9ZeXc4bM-1" source="SWkFI_tep8jCoxwhRH0J-4" edge="1">
          <mxGeometry width="50" height="50" relative="1" as="geometry">
            <mxPoint x="330" y="320" as="sourcePoint"/>
            <mxPoint x="320" y="371" as="targetPoint"/>
          </mxGeometry>
        </mxCell>
        <mxCell id="SWkFI_tep8jCoxwhRH0J-10" value="第三方的数据信息" style="rounded=1;whiteSpace=wrap;html=1;" parent="tkmVKXa2MN0v9ZeXc4bM-1" vertex="1">
          <mxGeometry x="550" y="370" width="120" height="60" as="geometry"/>
        </mxCell>
        <mxCell id="SWkFI_tep8jCoxwhRH0J-11" value="" style="endArrow=classic;html=1;entryX=1;entryY=0.5;entryDx=0;entryDy=0;exitX=0;exitY=0.5;exitDx=0;exitDy=0;" parent="tkmVKXa2MN0v9ZeXc4bM-1" source="SWkFI_tep8jCoxwhRH0J-10" target="SWkFI_tep8jCoxwhRH0J-0" edge="1">
          <mxGeometry width="50" height="50" relative="1" as="geometry">
            <mxPoint x="410" y="480" as="sourcePoint"/>
            <mxPoint x="460" y="430" as="targetPoint"/>
          </mxGeometry>
        </mxCell>
        <mxCell id="SWkFI_tep8jCoxwhRH0J-12" value="同步月卡绑定信息&lt;br&gt;用户信息&lt;br&gt;同步数据:死循坏??设置的时间:????" style="text;html=1;strokeColor=none;fillColor=none;align=center;verticalAlign=middle;whiteSpace=wrap;rounded=0;" parent="tkmVKXa2MN0v9ZeXc4bM-1" vertex="1">
          <mxGeometry x="380" y="350" width="150" height="40" as="geometry"/>
        </mxCell>
        <mxCell id="SWkFI_tep8jCoxwhRH0J-13" value="判断是不是我们的用户" style="text;html=1;strokeColor=none;fillColor=none;align=center;verticalAlign=middle;whiteSpace=wrap;rounded=0;" parent="tkmVKXa2MN0v9ZeXc4bM-1" vertex="1">
          <mxGeometry x="230" y="260" width="40" height="90" as="geometry"/>
        </mxCell>
        <mxCell id="SWkFI_tep8jCoxwhRH0J-14" value="HTTP/TCP" style="text;html=1;strokeColor=none;fillColor=none;align=center;verticalAlign=middle;whiteSpace=wrap;rounded=0;" parent="tkmVKXa2MN0v9ZeXc4bM-1" vertex="1">
          <mxGeometry x="420" y="400" width="70" height="20" as="geometry"/>
        </mxCell>
        <mxCell id="SWkFI_tep8jCoxwhRH0J-17" value="&lt;h1&gt;&lt;span style=&quot;font-size: 12px ; font-weight: normal&quot;&gt;1.判断是不是白名单&lt;/span&gt;&lt;br&gt;&lt;/h1&gt;&lt;div&gt;2.第三方月卡用户&lt;/div&gt;&lt;div&gt;3.不是月卡用户，临停===&amp;gt;&lt;/div&gt;&lt;div&gt;4.月卡用户绑定用户信息获取&lt;/div&gt;" style="text;html=1;strokeColor=none;fillColor=none;spacing=5;spacingTop=-20;whiteSpace=wrap;overflow=hidden;rounded=0;" parent="tkmVKXa2MN0v9ZeXc4bM-1" vertex="1">
          <mxGeometry x="700" y="310" width="190" height="120" as="geometry"/>
        </mxCell>
        <mxCell id="SWkFI_tep8jCoxwhRH0J-30" style="edgeStyle=orthogonalEdgeStyle;curved=1;rounded=0;orthogonalLoop=1;jettySize=auto;html=1;entryX=0;entryY=0.383;entryDx=0;entryDy=0;entryPerimeter=0;" parent="tkmVKXa2MN0v9ZeXc4bM-1" source="SWkFI_tep8jCoxwhRH0J-18" target="SWkFI_tep8jCoxwhRH0J-20" edge="1">
          <mxGeometry relative="1" as="geometry"/>
        </mxCell>
        <mxCell id="SWkFI_tep8jCoxwhRH0J-18" value="APP&lt;br&gt;通知" style="rounded=1;whiteSpace=wrap;html=1;" parent="tkmVKXa2MN0v9ZeXc4bM-1" vertex="1">
          <mxGeometry x="40" y="180" width="120" height="60" as="geometry"/>
        </mxCell>
        <mxCell id="SWkFI_tep8jCoxwhRH0J-20" value="支付" style="rounded=1;whiteSpace=wrap;html=1;" parent="tkmVKXa2MN0v9ZeXc4bM-1" vertex="1">
          <mxGeometry x="450" y="90" width="120" height="60" as="geometry"/>
        </mxCell>
        <mxCell id="SWkFI_tep8jCoxwhRH0J-23" value="LPR&lt;br&gt;EXIT" style="text;html=1;strokeColor=none;fillColor=none;align=center;verticalAlign=middle;whiteSpace=wrap;rounded=0;" parent="tkmVKXa2MN0v9ZeXc4bM-1" vertex="1">
          <mxGeometry x="580" y="10" width="40" height="20" as="geometry"/>
        </mxCell>
        <mxCell id="SWkFI_tep8jCoxwhRH0J-24" value="" style="endArrow=classic;html=1;exitX=0.5;exitY=1;exitDx=0;exitDy=0;entryX=0.8;entryY=-0.011;entryDx=0;entryDy=0;entryPerimeter=0;" parent="tkmVKXa2MN0v9ZeXc4bM-1" source="SWkFI_tep8jCoxwhRH0J-23" target="SWkFI_tep8jCoxwhRH0J-25" edge="1">
          <mxGeometry width="50" height="50" relative="1" as="geometry">
            <mxPoint x="610" y="120" as="sourcePoint"/>
            <mxPoint x="660" y="70" as="targetPoint"/>
          </mxGeometry>
        </mxCell>
        <mxCell id="SWkFI_tep8jCoxwhRH0J-28" value="" style="endArrow=classic;html=1;exitX=0.622;exitY=-0.016;exitDx=0;exitDy=0;exitPerimeter=0;entryX=0.6;entryY=1.033;entryDx=0;entryDy=0;entryPerimeter=0;" parent="tkmVKXa2MN0v9ZeXc4bM-1" source="SWkFI_tep8jCoxwhRH0J-25" target="SWkFI_tep8jCoxwhRH0J-20" edge="1">
          <mxGeometry width="50" height="50" relative="1" as="geometry">
            <mxPoint x="510" y="250" as="sourcePoint"/>
            <mxPoint x="560" y="200" as="targetPoint"/>
          </mxGeometry>
        </mxCell>
        <mxCell id="SWkFI_tep8jCoxwhRH0J-31" value="我们的用户，支付" style="text;html=1;strokeColor=none;fillColor=none;align=center;verticalAlign=middle;whiteSpace=wrap;rounded=0;" parent="tkmVKXa2MN0v9ZeXc4bM-1" vertex="1">
          <mxGeometry x="240" y="100" width="100" height="20" as="geometry"/>
        </mxCell>
        <mxCell id="SWkFI_tep8jCoxwhRH0J-32" value="" style="endArrow=classic;html=1;" parent="tkmVKXa2MN0v9ZeXc4bM-1" source="SWkFI_tep8jCoxwhRH0J-20" edge="1">
          <mxGeometry width="50" height="50" relative="1" as="geometry">
            <mxPoint x="450" y="-30" as="sourcePoint"/>
            <mxPoint x="509" as="targetPoint"/>
          </mxGeometry>
        </mxCell>
        <mxCell id="SWkFI_tep8jCoxwhRH0J-33" value="如果够支付" style="text;html=1;strokeColor=none;fillColor=none;align=center;verticalAlign=middle;whiteSpace=wrap;rounded=0;" parent="tkmVKXa2MN0v9ZeXc4bM-1" vertex="1">
          <mxGeometry x="465" y="40" width="40" height="20" as="geometry"/>
        </mxCell>
        <mxCell id="SWkFI_tep8jCoxwhRH0J-34" value="出行" style="rounded=1;whiteSpace=wrap;html=1;" parent="tkmVKXa2MN0v9ZeXc4bM-1" vertex="1">
          <mxGeometry x="450" y="-70" width="120" height="60" as="geometry"/>
        </mxCell>
        <mxCell id="SWkFI_tep8jCoxwhRH0J-35" value="" style="endArrow=classic;html=1;exitX=0.95;exitY=-0.1;exitDx=0;exitDy=0;exitPerimeter=0;" parent="tkmVKXa2MN0v9ZeXc4bM-1" source="SWkFI_tep8jCoxwhRH0J-33" edge="1">
          <mxGeometry width="50" height="50" relative="1" as="geometry">
            <mxPoint x="230" y="70" as="sourcePoint"/>
            <mxPoint x="360" y="40" as="targetPoint"/>
          </mxGeometry>
        </mxCell>
        <mxCell id="SWkFI_tep8jCoxwhRH0J-36" value="不够支付???" style="text;html=1;strokeColor=none;fillColor=none;align=center;verticalAlign=middle;whiteSpace=wrap;rounded=0;" parent="tkmVKXa2MN0v9ZeXc4bM-1" vertex="1">
          <mxGeometry x="340" y="10" width="100" height="20" as="geometry"/>
        </mxCell>
      </root>
    </mxGraphModel>
  </diagram>
  <diagram name="第 3 页" id="x9VovwbXcj8_H7V4NgyI">
    <mxGraphModel dx="854" dy="473" grid="1" gridSize="10" guides="1" tooltips="1" connect="1" arrows="1" fold="1" page="1" pageScale="1" pageWidth="827" pageHeight="1169" math="0" shadow="0">
      <root>
        <mxCell id="RoW2ns3QChvrlt9iWhUN-0"/>
        <mxCell id="RoW2ns3QChvrlt9iWhUN-1" parent="RoW2ns3QChvrlt9iWhUN-0"/>
        <mxCell id="ycFNFPEK4HeaDdVD7yl_-0" value="" style="endArrow=classic;html=1;" parent="RoW2ns3QChvrlt9iWhUN-1" edge="1">
          <mxGeometry width="50" height="50" relative="1" as="geometry">
            <mxPoint x="90" y="200" as="sourcePoint"/>
            <mxPoint x="190" y="200" as="targetPoint"/>
          </mxGeometry>
        </mxCell>
        <mxCell id="ycFNFPEK4HeaDdVD7yl_-1" value="HTTP支付请求" style="text;html=1;strokeColor=none;fillColor=none;align=center;verticalAlign=middle;whiteSpace=wrap;rounded=0;" parent="RoW2ns3QChvrlt9iWhUN-1" vertex="1">
          <mxGeometry x="90" y="170" width="90" height="20" as="geometry"/>
        </mxCell>
        <mxCell id="ycFNFPEK4HeaDdVD7yl_-4" value="" style="edgeStyle=orthogonalEdgeStyle;curved=1;rounded=0;orthogonalLoop=1;jettySize=auto;html=1;" parent="RoW2ns3QChvrlt9iWhUN-1" source="ycFNFPEK4HeaDdVD7yl_-2" target="ycFNFPEK4HeaDdVD7yl_-3" edge="1">
          <mxGeometry relative="1" as="geometry"/>
        </mxCell>
        <mxCell id="ycFNFPEK4HeaDdVD7yl_-2" value="验证，订单，商户信息[身份，余额]" style="rounded=1;whiteSpace=wrap;html=1;" parent="RoW2ns3QChvrlt9iWhUN-1" vertex="1">
          <mxGeometry x="200" y="170" width="120" height="60" as="geometry"/>
        </mxCell>
        <mxCell id="ycFNFPEK4HeaDdVD7yl_-6" value="" style="edgeStyle=orthogonalEdgeStyle;curved=1;rounded=0;orthogonalLoop=1;jettySize=auto;html=1;" parent="RoW2ns3QChvrlt9iWhUN-1" source="ycFNFPEK4HeaDdVD7yl_-3" target="ycFNFPEK4HeaDdVD7yl_-5" edge="1">
          <mxGeometry relative="1" as="geometry"/>
        </mxCell>
        <mxCell id="ycFNFPEK4HeaDdVD7yl_-3" value="计算费用信息" style="rounded=1;whiteSpace=wrap;html=1;" parent="RoW2ns3QChvrlt9iWhUN-1" vertex="1">
          <mxGeometry x="400" y="170" width="120" height="60" as="geometry"/>
        </mxCell>
        <mxCell id="ycFNFPEK4HeaDdVD7yl_-8" value="" style="edgeStyle=orthogonalEdgeStyle;curved=1;rounded=0;orthogonalLoop=1;jettySize=auto;html=1;" parent="RoW2ns3QChvrlt9iWhUN-1" source="ycFNFPEK4HeaDdVD7yl_-5" target="ycFNFPEK4HeaDdVD7yl_-7" edge="1">
          <mxGeometry relative="1" as="geometry"/>
        </mxCell>
        <mxCell id="ycFNFPEK4HeaDdVD7yl_-5" value="交易快照" style="rounded=1;whiteSpace=wrap;html=1;" parent="RoW2ns3QChvrlt9iWhUN-1" vertex="1">
          <mxGeometry x="600" y="170" width="120" height="60" as="geometry"/>
        </mxCell>
        <mxCell id="ycFNFPEK4HeaDdVD7yl_-10" value="" style="edgeStyle=orthogonalEdgeStyle;curved=1;rounded=0;orthogonalLoop=1;jettySize=auto;html=1;" parent="RoW2ns3QChvrlt9iWhUN-1" source="ycFNFPEK4HeaDdVD7yl_-7" target="ycFNFPEK4HeaDdVD7yl_-9" edge="1">
          <mxGeometry relative="1" as="geometry"/>
        </mxCell>
        <mxCell id="ycFNFPEK4HeaDdVD7yl_-7" value="生成支付信息&lt;br&gt;transaction_id" style="rounded=1;whiteSpace=wrap;html=1;" parent="RoW2ns3QChvrlt9iWhUN-1" vertex="1">
          <mxGeometry x="600" y="310" width="120" height="60" as="geometry"/>
        </mxCell>
        <mxCell id="ycFNFPEK4HeaDdVD7yl_-14" value="" style="edgeStyle=orthogonalEdgeStyle;curved=1;rounded=0;orthogonalLoop=1;jettySize=auto;html=1;" parent="RoW2ns3QChvrlt9iWhUN-1" source="ycFNFPEK4HeaDdVD7yl_-9" target="ycFNFPEK4HeaDdVD7yl_-13" edge="1">
          <mxGeometry relative="1" as="geometry"/>
        </mxCell>
        <mxCell id="ycFNFPEK4HeaDdVD7yl_-9" value="支付2条记录" style="rounded=1;whiteSpace=wrap;html=1;" parent="RoW2ns3QChvrlt9iWhUN-1" vertex="1">
          <mxGeometry x="480" y="420" width="120" height="60" as="geometry"/>
        </mxCell>
        <mxCell id="ycFNFPEK4HeaDdVD7yl_-13" value="钱包支付，扣减余额" style="rounded=1;whiteSpace=wrap;html=1;" parent="RoW2ns3QChvrlt9iWhUN-1" vertex="1">
          <mxGeometry x="390" y="560" width="120" height="60" as="geometry"/>
        </mxCell>
        <mxCell id="ycFNFPEK4HeaDdVD7yl_-11" value="充值3条记录" style="rounded=1;whiteSpace=wrap;html=1;" parent="RoW2ns3QChvrlt9iWhUN-1" vertex="1">
          <mxGeometry x="710" y="420" width="120" height="60" as="geometry"/>
        </mxCell>
        <mxCell id="ycFNFPEK4HeaDdVD7yl_-12" value="" style="edgeStyle=orthogonalEdgeStyle;curved=1;rounded=0;orthogonalLoop=1;jettySize=auto;html=1;entryX=0.5;entryY=0;entryDx=0;entryDy=0;exitX=0.5;exitY=1;exitDx=0;exitDy=0;" parent="RoW2ns3QChvrlt9iWhUN-1" source="ycFNFPEK4HeaDdVD7yl_-7" target="ycFNFPEK4HeaDdVD7yl_-11" edge="1">
          <mxGeometry relative="1" as="geometry">
            <mxPoint x="670" y="380" as="sourcePoint"/>
            <mxPoint x="550" y="430" as="targetPoint"/>
          </mxGeometry>
        </mxCell>
        <mxCell id="ycFNFPEK4HeaDdVD7yl_-18" value="" style="edgeStyle=orthogonalEdgeStyle;curved=1;rounded=0;orthogonalLoop=1;jettySize=auto;html=1;" parent="RoW2ns3QChvrlt9iWhUN-1" source="ycFNFPEK4HeaDdVD7yl_-15" target="ycFNFPEK4HeaDdVD7yl_-17" edge="1">
          <mxGeometry relative="1" as="geometry"/>
        </mxCell>
        <mxCell id="ycFNFPEK4HeaDdVD7yl_-20" value="" style="edgeStyle=orthogonalEdgeStyle;curved=1;rounded=0;orthogonalLoop=1;jettySize=auto;html=1;" parent="RoW2ns3QChvrlt9iWhUN-1" source="ycFNFPEK4HeaDdVD7yl_-15" target="ycFNFPEK4HeaDdVD7yl_-19" edge="1">
          <mxGeometry relative="1" as="geometry"/>
        </mxCell>
        <mxCell id="ycFNFPEK4HeaDdVD7yl_-15" value="银行支付" style="rounded=1;whiteSpace=wrap;html=1;" parent="RoW2ns3QChvrlt9iWhUN-1" vertex="1">
          <mxGeometry x="550" y="560" width="120" height="60" as="geometry"/>
        </mxCell>
        <mxCell id="ycFNFPEK4HeaDdVD7yl_-19" value="网页有回调？？？" style="rounded=1;whiteSpace=wrap;html=1;" parent="RoW2ns3QChvrlt9iWhUN-1" vertex="1">
          <mxGeometry x="750" y="560" width="120" height="60" as="geometry"/>
        </mxCell>
        <mxCell id="ycFNFPEK4HeaDdVD7yl_-17" value="成功/失败回调" style="rounded=1;whiteSpace=wrap;html=1;" parent="RoW2ns3QChvrlt9iWhUN-1" vertex="1">
          <mxGeometry x="550" y="700" width="120" height="60" as="geometry"/>
        </mxCell>
        <mxCell id="ycFNFPEK4HeaDdVD7yl_-16" value="" style="edgeStyle=orthogonalEdgeStyle;curved=1;rounded=0;orthogonalLoop=1;jettySize=auto;html=1;entryX=0.5;entryY=0;entryDx=0;entryDy=0;exitX=0.5;exitY=1;exitDx=0;exitDy=0;" parent="RoW2ns3QChvrlt9iWhUN-1" source="ycFNFPEK4HeaDdVD7yl_-9" target="ycFNFPEK4HeaDdVD7yl_-15" edge="1">
          <mxGeometry relative="1" as="geometry">
            <mxPoint x="550" y="490" as="sourcePoint"/>
            <mxPoint x="460" y="570" as="targetPoint"/>
          </mxGeometry>
        </mxCell>
        <mxCell id="ycFNFPEK4HeaDdVD7yl_-21" value="交易信息分成记录" style="text;html=1;strokeColor=none;fillColor=none;align=center;verticalAlign=middle;whiteSpace=wrap;rounded=0;" parent="RoW2ns3QChvrlt9iWhUN-1" vertex="1">
          <mxGeometry x="730" y="325" width="160" height="30" as="geometry"/>
        </mxCell>
      </root>
    </mxGraphModel>
  </diagram>
  <diagram name="第 4 页" id="2KBZn5gxl62zL_i9FTA5">
    <mxGraphModel dx="854" dy="473" grid="1" gridSize="10" guides="1" tooltips="1" connect="1" arrows="1" fold="1" page="1" pageScale="1" pageWidth="827" pageHeight="1169" math="0" shadow="0">
      <root>
        <mxCell id="IapVhrurkl3nlB0gxuze-0"/>
        <mxCell id="IapVhrurkl3nlB0gxuze-1" parent="IapVhrurkl3nlB0gxuze-0"/>
        <mxCell id="dM5QSObzzzmdFOtFH-_1-11" value="" style="html=1;" vertex="1" parent="IapVhrurkl3nlB0gxuze-1">
          <mxGeometry x="75" y="80" width="685" height="450" as="geometry"/>
        </mxCell>
        <mxCell id="dM5QSObzzzmdFOtFH-_1-5" value="用户" style="shape=umlLifeline;perimeter=lifelinePerimeter;whiteSpace=wrap;html=1;container=1;collapsible=0;recursiveResize=0;outlineConnect=0;" vertex="1" parent="IapVhrurkl3nlB0gxuze-1">
          <mxGeometry x="130" y="130" width="110" height="300" as="geometry"/>
        </mxCell>
        <mxCell id="dM5QSObzzzmdFOtFH-_1-6" value="商户" style="shape=umlLifeline;perimeter=lifelinePerimeter;whiteSpace=wrap;html=1;container=1;collapsible=0;recursiveResize=0;outlineConnect=0;" vertex="1" parent="IapVhrurkl3nlB0gxuze-1">
          <mxGeometry x="350" y="130" width="100" height="300" as="geometry"/>
        </mxCell>
        <mxCell id="dM5QSObzzzmdFOtFH-_1-7" value="财务" style="shape=umlLifeline;perimeter=lifelinePerimeter;whiteSpace=wrap;html=1;container=1;collapsible=0;recursiveResize=0;outlineConnect=0;" vertex="1" parent="IapVhrurkl3nlB0gxuze-1">
          <mxGeometry x="590" y="130" width="100" height="300" as="geometry"/>
        </mxCell>
        <mxCell id="dM5QSObzzzmdFOtFH-_1-30" value="" style="html=1;points=[];perimeter=orthogonalPerimeter;" vertex="1" parent="dM5QSObzzzmdFOtFH-_1-7">
          <mxGeometry x="50" y="120" width="10" height="60" as="geometry"/>
        </mxCell>
        <mxCell id="dM5QSObzzzmdFOtFH-_1-31" value="7天审核" style="edgeStyle=orthogonalEdgeStyle;html=1;align=left;spacingLeft=2;endArrow=block;rounded=0;" edge="1" target="dM5QSObzzzmdFOtFH-_1-30" parent="dM5QSObzzzmdFOtFH-_1-7">
          <mxGeometry relative="1" as="geometry">
            <mxPoint x="55" y="120" as="sourcePoint"/>
            <Array as="points">
              <mxPoint x="80" y="120"/>
              <mxPoint x="80" y="160"/>
            </Array>
          </mxGeometry>
        </mxCell>
        <mxCell id="dM5QSObzzzmdFOtFH-_1-36" value="" style="html=1;points=[];perimeter=orthogonalPerimeter;" vertex="1" parent="dM5QSObzzzmdFOtFH-_1-7">
          <mxGeometry x="50" y="180" width="10" height="100" as="geometry"/>
        </mxCell>
        <mxCell id="dM5QSObzzzmdFOtFH-_1-12" value="用户退款申请[网银/fpx银行对接]" style="text;html=1;strokeColor=none;fillColor=none;align=center;verticalAlign=middle;whiteSpace=wrap;rounded=0;" vertex="1" parent="IapVhrurkl3nlB0gxuze-1">
          <mxGeometry x="280" y="90" width="210" height="20" as="geometry"/>
        </mxCell>
        <mxCell id="dM5QSObzzzmdFOtFH-_1-15" value="转发填写申请退款portal" style="html=1;verticalAlign=bottom;endArrow=block;" edge="1" parent="IapVhrurkl3nlB0gxuze-1">
          <mxGeometry x="-0.0814" y="10" width="80" relative="1" as="geometry">
            <mxPoint x="400" y="250" as="sourcePoint"/>
            <mxPoint x="639.5" y="250" as="targetPoint"/>
            <mxPoint as="offset"/>
          </mxGeometry>
        </mxCell>
        <mxCell id="dM5QSObzzzmdFOtFH-_1-16" value="" style="html=1;points=[];perimeter=orthogonalPerimeter;" vertex="1" parent="IapVhrurkl3nlB0gxuze-1">
          <mxGeometry x="390" y="220" width="10" height="30" as="geometry"/>
        </mxCell>
        <mxCell id="dM5QSObzzzmdFOtFH-_1-17" value="申请退款" style="html=1;verticalAlign=bottom;endArrow=block;" edge="1" parent="IapVhrurkl3nlB0gxuze-1" target="dM5QSObzzzmdFOtFH-_1-16">
          <mxGeometry width="80" relative="1" as="geometry">
            <mxPoint x="184.5" y="220" as="sourcePoint"/>
            <mxPoint x="399.5" y="220" as="targetPoint"/>
          </mxGeometry>
        </mxCell>
        <mxCell id="dM5QSObzzzmdFOtFH-_1-33" value="不同意返回给商户" style="html=1;verticalAlign=bottom;endArrow=open;dashed=1;endSize=8;" edge="1" parent="IapVhrurkl3nlB0gxuze-1">
          <mxGeometry relative="1" as="geometry">
            <mxPoint x="639.5" y="290" as="sourcePoint"/>
            <mxPoint x="399.5" y="290" as="targetPoint"/>
          </mxGeometry>
        </mxCell>
        <mxCell id="dM5QSObzzzmdFOtFH-_1-37" value="同意退款&lt;br&gt;扣除费用" style="edgeStyle=orthogonalEdgeStyle;html=1;align=left;spacingLeft=2;endArrow=block;rounded=0;" edge="1" parent="IapVhrurkl3nlB0gxuze-1">
          <mxGeometry relative="1" as="geometry">
            <mxPoint x="655" y="313" as="sourcePoint"/>
            <Array as="points">
              <mxPoint x="680" y="313"/>
              <mxPoint x="680" y="353"/>
            </Array>
            <mxPoint x="660" y="353" as="targetPoint"/>
          </mxGeometry>
        </mxCell>
        <mxCell id="dM5QSObzzzmdFOtFH-_1-38" value="退款给用户的银行账号" style="html=1;verticalAlign=bottom;endArrow=open;dashed=1;endSize=8;" edge="1" parent="IapVhrurkl3nlB0gxuze-1" target="dM5QSObzzzmdFOtFH-_1-5">
          <mxGeometry relative="1" as="geometry">
            <mxPoint x="640" y="330" as="sourcePoint"/>
            <mxPoint x="560" y="330" as="targetPoint"/>
          </mxGeometry>
        </mxCell>
        <mxCell id="dM5QSObzzzmdFOtFH-_1-39" value="通知email" style="html=1;verticalAlign=bottom;endArrow=block;" edge="1" parent="IapVhrurkl3nlB0gxuze-1">
          <mxGeometry width="80" relative="1" as="geometry">
            <mxPoint x="639.5" y="351" as="sourcePoint"/>
            <mxPoint x="184.5" y="351" as="targetPoint"/>
          </mxGeometry>
        </mxCell>
        <mxCell id="dM5QSObzzzmdFOtFH-_1-40" value="通知email&amp;amp;portal更改" style="html=1;verticalAlign=bottom;endArrow=block;" edge="1" parent="IapVhrurkl3nlB0gxuze-1">
          <mxGeometry width="80" relative="1" as="geometry">
            <mxPoint x="640" y="370" as="sourcePoint"/>
            <mxPoint x="400" y="370" as="targetPoint"/>
          </mxGeometry>
        </mxCell>
      </root>
    </mxGraphModel>
  </diagram>
  <diagram id="O4605b2EGaGYe5nJWcgh" name="第 5 页">
    <mxGraphModel dx="854" dy="473" grid="1" gridSize="10" guides="1" tooltips="1" connect="1" arrows="1" fold="1" page="1" pageScale="1" pageWidth="827" pageHeight="1169" math="0" shadow="0">
      <root>
        <mxCell id="PIvj7aFsTRUlUypdkbB4-0"/>
        <mxCell id="PIvj7aFsTRUlUypdkbB4-1" parent="PIvj7aFsTRUlUypdkbB4-0"/>
        <mxCell id="NJhvHvg4252p-tzAevdr-0" value="" style="html=1;" vertex="1" parent="PIvj7aFsTRUlUypdkbB4-1">
          <mxGeometry x="75" y="80" width="685" height="450" as="geometry"/>
        </mxCell>
        <mxCell id="NJhvHvg4252p-tzAevdr-1" value="用户" style="shape=umlLifeline;perimeter=lifelinePerimeter;whiteSpace=wrap;html=1;container=1;collapsible=0;recursiveResize=0;outlineConnect=0;" vertex="1" parent="PIvj7aFsTRUlUypdkbB4-1">
          <mxGeometry x="130" y="130" width="110" height="300" as="geometry"/>
        </mxCell>
        <mxCell id="NJhvHvg4252p-tzAevdr-2" value="商户" style="shape=umlLifeline;perimeter=lifelinePerimeter;whiteSpace=wrap;html=1;container=1;collapsible=0;recursiveResize=0;outlineConnect=0;" vertex="1" parent="PIvj7aFsTRUlUypdkbB4-1">
          <mxGeometry x="350" y="130" width="100" height="300" as="geometry"/>
        </mxCell>
        <mxCell id="NJhvHvg4252p-tzAevdr-3" value="财务" style="shape=umlLifeline;perimeter=lifelinePerimeter;whiteSpace=wrap;html=1;container=1;collapsible=0;recursiveResize=0;outlineConnect=0;" vertex="1" parent="PIvj7aFsTRUlUypdkbB4-1">
          <mxGeometry x="590" y="130" width="100" height="300" as="geometry"/>
        </mxCell>
        <mxCell id="NJhvHvg4252p-tzAevdr-4" value="" style="html=1;points=[];perimeter=orthogonalPerimeter;" vertex="1" parent="NJhvHvg4252p-tzAevdr-3">
          <mxGeometry x="50" y="120" width="10" height="60" as="geometry"/>
        </mxCell>
        <mxCell id="NJhvHvg4252p-tzAevdr-5" value="7天审核" style="edgeStyle=orthogonalEdgeStyle;html=1;align=left;spacingLeft=2;endArrow=block;rounded=0;" edge="1" parent="NJhvHvg4252p-tzAevdr-3" target="NJhvHvg4252p-tzAevdr-4">
          <mxGeometry relative="1" as="geometry">
            <mxPoint x="55" y="120" as="sourcePoint"/>
            <Array as="points">
              <mxPoint x="80" y="120"/>
              <mxPoint x="80" y="160"/>
            </Array>
          </mxGeometry>
        </mxCell>
        <mxCell id="NJhvHvg4252p-tzAevdr-6" value="" style="html=1;points=[];perimeter=orthogonalPerimeter;" vertex="1" parent="NJhvHvg4252p-tzAevdr-3">
          <mxGeometry x="50" y="180" width="10" height="100" as="geometry"/>
        </mxCell>
        <mxCell id="NJhvHvg4252p-tzAevdr-7" value="用户退款申请[信用卡]" style="text;html=1;strokeColor=none;fillColor=none;align=center;verticalAlign=middle;whiteSpace=wrap;rounded=0;" vertex="1" parent="PIvj7aFsTRUlUypdkbB4-1">
          <mxGeometry x="280" y="90" width="210" height="20" as="geometry"/>
        </mxCell>
        <mxCell id="NJhvHvg4252p-tzAevdr-8" value="转发填写申请退款portal" style="html=1;verticalAlign=bottom;endArrow=block;" edge="1" parent="PIvj7aFsTRUlUypdkbB4-1">
          <mxGeometry x="-0.0814" y="10" width="80" relative="1" as="geometry">
            <mxPoint x="400" y="250" as="sourcePoint"/>
            <mxPoint x="639.5" y="250" as="targetPoint"/>
            <mxPoint as="offset"/>
          </mxGeometry>
        </mxCell>
        <mxCell id="NJhvHvg4252p-tzAevdr-9" value="" style="html=1;points=[];perimeter=orthogonalPerimeter;" vertex="1" parent="PIvj7aFsTRUlUypdkbB4-1">
          <mxGeometry x="390" y="220" width="10" height="30" as="geometry"/>
        </mxCell>
        <mxCell id="NJhvHvg4252p-tzAevdr-10" value="申请退款" style="html=1;verticalAlign=bottom;endArrow=block;" edge="1" parent="PIvj7aFsTRUlUypdkbB4-1" target="NJhvHvg4252p-tzAevdr-9">
          <mxGeometry width="80" relative="1" as="geometry">
            <mxPoint x="184.5" y="220" as="sourcePoint"/>
            <mxPoint x="399.5" y="220" as="targetPoint"/>
          </mxGeometry>
        </mxCell>
        <mxCell id="NJhvHvg4252p-tzAevdr-11" value="不同意返回给商户" style="html=1;verticalAlign=bottom;endArrow=open;dashed=1;endSize=8;" edge="1" parent="PIvj7aFsTRUlUypdkbB4-1">
          <mxGeometry relative="1" as="geometry">
            <mxPoint x="639.5" y="290" as="sourcePoint"/>
            <mxPoint x="399.5" y="290" as="targetPoint"/>
          </mxGeometry>
        </mxCell>
        <mxCell id="NJhvHvg4252p-tzAevdr-12" value="同意退款&lt;br&gt;扣除费用" style="edgeStyle=orthogonalEdgeStyle;html=1;align=left;spacingLeft=2;endArrow=block;rounded=0;" edge="1" parent="PIvj7aFsTRUlUypdkbB4-1">
          <mxGeometry relative="1" as="geometry">
            <mxPoint x="655" y="313" as="sourcePoint"/>
            <Array as="points">
              <mxPoint x="680" y="313"/>
              <mxPoint x="680" y="353"/>
            </Array>
            <mxPoint x="660" y="353" as="targetPoint"/>
          </mxGeometry>
        </mxCell>
        <mxCell id="NJhvHvg4252p-tzAevdr-13" value="退款给用户的银行账号" style="html=1;verticalAlign=bottom;endArrow=open;dashed=1;endSize=8;" edge="1" parent="PIvj7aFsTRUlUypdkbB4-1" target="NJhvHvg4252p-tzAevdr-1">
          <mxGeometry relative="1" as="geometry">
            <mxPoint x="640" y="330" as="sourcePoint"/>
            <mxPoint x="560" y="330" as="targetPoint"/>
          </mxGeometry>
        </mxCell>
        <mxCell id="NJhvHvg4252p-tzAevdr-14" value="通知email" style="html=1;verticalAlign=bottom;endArrow=block;" edge="1" parent="PIvj7aFsTRUlUypdkbB4-1">
          <mxGeometry width="80" relative="1" as="geometry">
            <mxPoint x="639.5" y="351" as="sourcePoint"/>
            <mxPoint x="184.5" y="351" as="targetPoint"/>
          </mxGeometry>
        </mxCell>
        <mxCell id="NJhvHvg4252p-tzAevdr-15" value="通知email&amp;amp;portal更改" style="html=1;verticalAlign=bottom;endArrow=block;" edge="1" parent="PIvj7aFsTRUlUypdkbB4-1">
          <mxGeometry width="80" relative="1" as="geometry">
            <mxPoint x="640" y="370" as="sourcePoint"/>
            <mxPoint x="400" y="370" as="targetPoint"/>
          </mxGeometry>
        </mxCell>
      </root>
    </mxGraphModel>
  </diagram>
</mxfile>
